<?xml version="1.0" standalone="no"?>
<!DOCTYPE svg PUBLIC "-//W3C//DTD SVG 20010904//EN"
 "http://www.w3.org/TR/2001/REC-SVG-20010904/DTD/svg10.dtd">
<svg version="1.0" xmlns="http://www.w3.org/2000/svg"
 width="974.000000pt" height="974.000000pt" viewBox="0 0 974.000000 974.000000"
 preserveAspectRatio="xMidYMid meet">
<metadata>
Created by potrace 1.11, written by Peter Selinger 2001-2013
</metadata>
<g transform="translate(0.000000,974.000000) scale(0.100000,-0.100000)"
fill="#000000" stroke="none">
<path d="M5207 9634 c-1 -1 -63 -4 -137 -7 -153 -7 -253 -14 -290 -22 -14 -2
-38 -7 -55 -10 -16 -3 -41 -7 -55 -10 -81 -19 -136 -28 -228 -40 -147 -18
-517 -135 -822 -260 -149 -61 -520 -243 -635 -313 -76 -46 -198 -132 -215
-152 -3 -3 -15 -13 -28 -22 -36 -24 -158 -145 -257 -253 -144 -158 -132 -144
-218 -265 -37 -52 -71 -99 -75 -105 -4 -5 -9 -13 -10 -18 0 -4 -26 -58 -56
-120 -30 -61 -91 -191 -136 -287 -45 -96 -86 -181 -92 -187 -6 -7 -8 -13 -4
-13 3 0 1 -12 -5 -27 -14 -36 -27 -79 -94 -328 -47 -174 -83 -341 -90 -425 -4
-54 -13 -131 -20 -180 -2 -14 -6 -50 -10 -80 -3 -30 -12 -93 -20 -140 -8 -47
-17 -103 -20 -125 -3 -23 -8 -52 -11 -65 -2 -14 -6 -38 -8 -55 -2 -16 -7 -50
-12 -75 -4 -25 -7 -48 -6 -52 1 -4 -2 -40 -8 -80 -20 -157 -25 -212 -35 -442
-3 -66 -7 -137 -10 -156 -2 -19 -7 -107 -11 -195 -3 -88 -8 -182 -10 -210 -4
-52 -10 -233 -19 -535 -3 -96 -7 -197 -10 -225 -2 -27 -7 -88 -11 -135 -4 -47
-7 -157 -6 -245 1 -88 1 -234 1 -325 -2 -414 1 -500 25 -730 2 -25 7 -76 11
-115 3 -38 8 -81 10 -95 7 -48 19 -189 30 -360 3 -41 8 -106 11 -145 3 -38 7
-124 9 -190 3 -66 5 -120 5 -120 1 0 3 -76 5 -170 3 -93 7 -199 10 -235 2 -36
7 -94 10 -130 2 -36 7 -101 10 -145 3 -44 7 -98 10 -120 3 -22 7 -65 10 -95 3
-30 8 -75 10 -100 3 -25 7 -81 9 -125 3 -44 7 -89 9 -100 13 -55 20 -116 22
-169 1 -44 6 -62 20 -72 30 -23 31 -22 95 56 19 24 42 51 50 59 18 19 137 183
165 226 10 16 33 44 52 61 18 17 33 35 33 39 0 11 178 232 280 349 50 57 69
79 84 96 7 8 34 44 60 80 25 36 50 70 54 75 4 6 41 60 82 120 41 61 77 112 80
115 13 13 60 91 60 100 0 5 4 10 10 10 5 0 26 25 46 55 20 30 40 55 43 55 8 0
75 -142 73 -152 -1 -5 2 -8 8 -8 5 0 10 -5 10 -10 0 -6 8 -29 19 -53 21 -50
42 -100 44 -107 1 -3 18 -36 39 -74 21 -38 38 -73 38 -77 0 -5 5 -9 10 -9 6 0
10 -4 10 -10 0 -5 30 -72 66 -147 36 -76 71 -151 79 -168 71 -154 89 -195 103
-230 8 -22 19 -44 23 -50 21 -29 156 -304 151 -309 -3 -3 -1 -6 5 -6 5 0 20
-24 34 -53 37 -80 51 -82 89 -14 13 23 26 44 29 47 18 15 53 75 70 118 11 28
34 72 50 100 17 27 31 54 31 60 0 6 4 12 8 14 12 4 152 242 152 257 0 6 4 11
9 11 5 0 11 8 15 18 3 9 11 26 18 37 67 106 180 310 178 321 -1 4 3 10 8 13 5
3 29 47 52 96 23 50 45 92 49 95 4 3 15 21 25 40 9 19 30 55 46 80 16 25 36
59 45 76 9 17 25 41 35 52 11 12 20 26 20 32 0 5 3 10 8 10 4 0 18 20 31 45
13 25 28 45 32 45 5 0 9 7 9 15 0 8 7 15 15 15 8 0 15 -4 15 -8 0 -9 175 -336
199 -372 10 -14 32 -54 49 -90 18 -36 36 -72 41 -80 35 -55 70 -123 90 -170
24 -57 53 -122 99 -224 15 -32 27 -62 28 -65 3 -21 176 -375 186 -379 4 -2 8
-8 8 -13 0 -17 100 -177 114 -182 17 -7 70 49 60 64 -3 5 0 9 5 9 6 0 11 5 11
11 0 31 278 587 400 799 123 216 182 314 194 322 15 10 26 10 26 -1 0 -13 57
-134 89 -190 14 -25 35 -66 45 -91 10 -25 24 -58 31 -75 7 -16 20 -51 30 -77
10 -27 22 -48 26 -48 5 0 9 -7 9 -16 0 -22 233 -485 262 -521 6 -7 8 -13 5
-13 -3 0 16 -45 43 -100 28 -55 54 -100 60 -100 6 0 23 26 37 57 13 32 36 83
50 113 14 30 41 91 60 135 19 44 56 123 80 175 25 52 56 118 69 147 40 90 57
128 59 133 20 59 134 290 143 290 9 0 43 -38 72 -80 8 -13 20 -28 25 -34 6 -7
15 -19 20 -29 9 -15 89 -135 154 -230 14 -21 31 -45 36 -54 6 -10 13 -22 18
-27 132 -180 177 -244 254 -360 51 -76 93 -142 93 -147 0 -5 4 -9 10 -9 5 0
17 -15 26 -32 9 -18 23 -37 30 -41 8 -4 14 -13 14 -18 0 -13 59 -101 74 -111
26 -17 36 20 41 157 3 77 8 165 10 195 9 144 18 354 19 437 1 51 3 93 6 93 3
0 5 28 6 63 2 140 12 376 17 384 17 27 34 438 19 466 -7 15 -8 401 0 457 4 30
10 96 13 145 3 50 8 110 10 135 9 104 17 255 21 410 3 156 3 264 2 685 -1 178
8 499 17 625 3 36 8 99 11 140 12 146 13 188 13 495 0 626 -8 968 -24 1120 -3
28 -7 75 -10 105 -6 78 -15 161 -20 190 -2 14 -7 49 -10 79 -4 30 -9 63 -11
75 -2 12 -7 35 -10 51 -2 17 -9 47 -15 68 -6 21 -12 55 -14 75 -4 33 -9 66
-21 142 -3 14 -10 50 -16 80 -6 30 -12 62 -14 70 -1 8 -5 33 -8 55 -4 22 -9
58 -12 80 -3 22 -8 54 -10 70 -3 17 -7 41 -9 55 -11 79 -37 186 -61 260 -16
47 -29 88 -30 93 -1 4 -3 10 -4 15 -1 4 -3 12 -4 17 -6 32 -98 237 -118 264
-10 13 -18 27 -18 31 0 14 -141 255 -151 258 -5 2 -9 7 -9 12 0 24 -233 357
-311 445 -111 125 -139 155 -139 151 0 -3 -10 5 -23 17 -13 12 -36 31 -52 42
-16 11 -42 31 -59 45 -17 14 -39 32 -49 40 -11 8 -24 20 -31 26 -22 20 -172
123 -267 182 -119 74 -318 174 -374 188 -5 1 -77 25 -160 52 -153 51 -224 72
-260 77 -11 1 -60 10 -110 18 -49 9 -108 18 -130 21 -22 3 -53 8 -70 11 -96
16 -190 31 -270 41 -42 6 -174 12 -178 8z m243 -202 c25 -6 56 -13 70 -17 14
-3 34 -7 45 -9 11 -2 34 -6 50 -9 17 -4 41 -9 55 -11 14 -3 34 -7 45 -9 26 -6
93 -18 102 -19 5 0 19 -5 33 -10 27 -11 75 -21 103 -22 9 0 17 -5 17 -10 0 -5
2 -7 6 -4 7 8 347 -114 387 -139 6 -4 18 -8 25 -9 8 -2 22 -10 32 -19 10 -9
24 -18 32 -19 7 -1 22 -7 33 -13 11 -7 36 -21 55 -32 19 -11 51 -28 70 -37
103 -47 136 -66 367 -207 25 -16 67 -48 92 -73 l46 -45 -66 45 c-37 25 -69 46
-72 46 -3 0 -26 14 -50 30 -25 17 -49 30 -55 30 -6 0 -12 4 -14 8 -4 9 -423
225 -473 243 -11 4 -36 14 -55 22 -35 16 -226 87 -245 91 -5 2 -28 6 -50 11
-22 4 -44 10 -50 13 -5 3 -18 7 -30 8 -11 1 -49 10 -85 19 -87 21 -109 26
-150 30 -19 2 -36 5 -37 6 -4 2 -8 3 -55 12 -21 5 -41 8 -45 8 -5 1 -15 5 -23
9 -21 11 -149 22 -245 22 -165 -1 -452 -11 -496 -17 -26 -3 -78 -8 -115 -10
-64 -3 -154 -22 -264 -58 -25 -7 -72 -22 -105 -31 -57 -17 -143 -53 -283 -117
-34 -16 -70 -30 -80 -32 -9 -2 -26 -8 -37 -14 -11 -6 -23 -11 -28 -12 -4 0
-23 -8 -43 -16 -20 -8 -38 -15 -41 -15 -2 0 -54 -24 -116 -53 -62 -30 -127
-60 -144 -68 -18 -8 -33 -17 -33 -21 0 -5 -6 -8 -13 -8 -14 0 -123 -74 -142
-96 -5 -6 -48 -37 -95 -69 -47 -32 -86 -62 -88 -66 -2 -5 -8 -9 -14 -9 -39 0
-335 -245 -470 -389 -55 -58 -172 -222 -185 -259 -3 -9 -26 -47 -49 -84 -24
-38 -53 -86 -64 -107 -11 -22 -31 -57 -45 -78 -30 -43 -165 -310 -184 -363 -7
-19 -17 -44 -22 -55 -23 -52 -82 -237 -93 -290 -20 -97 -31 -142 -47 -202 -11
-40 -22 -89 -25 -110 -2 -21 -10 -54 -16 -73 -13 -37 -14 -42 -22 -78 -3 -13
-7 -31 -10 -40 -3 -9 -8 -37 -12 -62 -3 -25 -7 -54 -9 -65 -3 -22 -15 -87 -20
-117 -2 -10 -11 -69 -20 -131 -8 -62 -17 -123 -20 -137 -3 -14 -8 -43 -11 -65
-5 -40 -10 -69 -19 -115 -7 -36 -14 -98 -21 -182 -3 -40 -7 -86 -9 -103 -3
-33 -13 -139 -20 -225 -3 -30 -7 -152 -10 -270 -3 -118 -7 -300 -11 -405 -3
-104 -5 -219 -5 -255 1 -144 -1 -339 -4 -415 -2 -44 -6 -172 -9 -285 -4 -113
-9 -290 -12 -395 -10 -316 -11 -468 -3 -510 16 -91 22 -176 33 -475 6 -147 14
-283 21 -340 3 -25 7 -85 10 -135 6 -111 14 -215 20 -246 3 -13 8 -62 11 -109
3 -47 7 -96 10 -110 3 -14 7 -47 10 -75 3 -27 7 -66 9 -85 5 -42 18 -236 19
-267 0 -13 2 -23 6 -23 3 0 6 -37 7 -83 1 -45 4 -103 6 -128 4 -38 0 -51 -24
-80 -15 -18 -30 -32 -32 -29 -3 3 -8 48 -12 100 -4 52 -8 120 -11 150 -2 30
-6 91 -9 135 -2 44 -5 80 -6 80 0 0 -2 18 -4 40 -6 95 -17 228 -20 243 -3 19
-13 109 -21 192 -11 123 -13 144 -18 179 -3 20 -8 79 -11 131 -3 52 -7 122
-11 155 -10 109 -21 309 -29 520 -5 129 -15 253 -23 285 -7 29 -10 490 -3 504
4 9 6 106 14 618 1 65 4 118 7 118 3 0 6 141 7 313 0 171 4 402 7 512 4 110 9
272 11 360 2 88 7 178 9 200 3 22 8 78 11 125 3 47 8 92 10 100 2 8 7 58 10
110 4 52 8 97 10 100 2 3 6 26 10 50 3 25 15 97 25 160 11 63 22 138 25 165 3
28 7 57 10 65 2 8 6 37 10 64 3 27 8 52 10 55 1 3 6 31 10 61 3 30 10 70 15
89 5 19 7 37 5 40 -3 2 -1 9 4 15 7 9 21 59 37 129 1 4 2 8 3 10 1 1 4 18 6
37 2 19 10 55 19 80 8 25 19 70 25 100 6 30 13 66 16 80 3 14 8 35 11 47 10
52 113 343 136 390 123 240 153 300 160 308 18 22 58 86 58 93 0 4 18 34 40
67 22 33 40 63 40 67 0 7 38 70 72 122 121 179 323 376 533 518 144 98 210
143 215 148 25 25 147 111 186 130 27 14 51 28 54 31 8 11 309 144 388 173 40
14 97 37 125 50 29 13 81 37 117 54 93 42 403 131 480 138 36 3 81 8 100 10
19 2 118 7 220 10 102 4 186 8 188 9 8 7 303 -5 342 -13z m2161 -3907 c15 -16
45 -49 68 -73 74 -79 128 -147 133 -169 3 -12 0 -30 -8 -41 -28 -40 -338 -237
-406 -258 -13 -3 -31 -13 -41 -22 -9 -8 -20 -12 -24 -9 -3 4 -11 3 -17 -2 -11
-8 -109 -43 -134 -47 -8 -1 -46 -8 -85 -14 -40 -6 -83 -13 -97 -16 -78 -13
-431 -20 -502 -11 -306 43 -480 84 -603 142 -59 28 -175 94 -185 105 -3 4 -23
17 -45 30 -74 45 -165 114 -164 124 0 6 3 5 6 -1 2 -7 9 -13 14 -13 8 0 97
-55 179 -110 51 -35 197 -100 255 -114 6 -1 19 -5 30 -9 37 -12 291 -60 390
-73 70 -10 392 -10 480 -1 33 4 80 9 105 12 74 8 149 25 225 50 150 51 480
242 533 310 21 27 21 28 4 58 -9 17 -26 41 -37 53 -11 11 -31 34 -45 50 -13
16 -44 52 -69 79 -25 28 -33 39 -17 25 16 -14 42 -38 57 -55z m-2734 -85 c26
-36 -90 -172 -263 -308 -23 -17 -45 -32 -48 -32 -3 0 -20 -12 -37 -27 -46 -42
-233 -143 -263 -143 -7 0 -16 -4 -21 -9 -14 -12 -207 -76 -290 -96 -38 -9 -74
-18 -80 -19 -5 -2 -26 -6 -45 -9 -19 -4 -48 -10 -65 -13 -48 -10 -379 -13
-422 -3 -252 56 -231 51 -313 79 -71 23 -280 122 -320 150 -14 10 -54 33 -90
52 -66 34 -116 65 -136 83 -34 30 -55 45 -64 45 -5 0 -15 8 -22 18 -7 9 -25
25 -39 34 -14 9 -32 23 -40 30 -8 7 -29 25 -47 41 -19 15 -30 27 -27 27 6 0
47 -30 100 -73 54 -44 138 -100 188 -126 34 -17 80 -43 102 -56 39 -24 169
-89 210 -105 11 -4 36 -15 55 -23 106 -46 365 -104 458 -103 23 1 42 -3 42 -7
0 -5 4 -6 8 -3 5 3 49 6 99 7 50 1 115 5 144 10 30 5 70 11 89 14 19 3 53 10
75 16 22 6 48 13 57 15 44 10 58 14 138 40 47 15 87 28 90 28 8 1 85 34 160
69 67 31 192 107 217 133 8 8 18 14 22 14 4 0 19 9 32 21 13 12 48 42 78 67
123 105 202 206 184 235 -10 16 69 -53 84 -73z m613 -160 c0 -5 -2 -10 -4 -10
-3 0 -8 5 -11 10 -3 6 -1 10 4 10 6 0 11 -4 11 -10z m-685 -3250 c16 -36 32
-67 35 -70 3 -3 23 -43 44 -90 21 -47 51 -106 68 -132 16 -26 31 -53 32 -60 3
-15 68 -150 76 -158 7 -6 189 -362 248 -485 24 -49 50 -101 58 -115 8 -14 31
-56 51 -95 19 -38 44 -82 54 -97 20 -28 25 -68 9 -68 -5 0 -18 17 -28 38 -39
76 -87 167 -92 172 -8 8 -23 37 -79 150 -29 58 -57 113 -62 123 -5 10 -39 75
-74 144 -36 69 -70 132 -76 140 -6 7 -9 13 -5 13 3 0 -18 44 -46 98 -29 53
-57 107 -62 119 -6 13 -14 23 -18 23 -5 0 -8 6 -8 13 0 15 -22 67 -46 107 -25
43 -145 289 -143 296 0 4 -5 10 -12 14 -7 5 -9 15 -5 26 7 17 10 16 29 -11 12
-16 35 -58 52 -95z m-1745 -55 c9 -16 23 -48 32 -70 9 -22 28 -66 42 -97 14
-31 26 -59 26 -62 0 -2 14 -34 30 -70 17 -36 44 -96 61 -133 78 -172 125 -271
146 -308 30 -52 285 -566 312 -629 16 -37 18 -52 10 -62 -15 -18 -29 -18 -29
-1 0 8 -6 27 -14 43 -14 30 -47 103 -61 139 -5 11 -7 23 -7 28 1 4 -3 7 -8 7
-6 0 -10 6 -10 13 0 11 -164 341 -301 607 -30 58 -67 134 -83 170 -44 101 -67
150 -94 210 -14 30 -27 60 -28 65 -1 6 -19 47 -38 93 -42 97 -41 94 -19 90 9
-2 24 -16 33 -33z m3247 -195 c70 -145 173 -359 203 -425 51 -110 99 -214 137
-292 19 -40 34 -75 34 -77 0 -3 18 -42 39 -86 22 -44 40 -82 40 -86 0 -3 11
-30 25 -60 18 -40 23 -60 16 -72 -8 -14 -21 6 -64 98 -79 167 -110 234 -112
240 -6 18 -32 77 -70 155 -59 123 -145 307 -145 311 0 8 -44 99 -50 104 -7 6
-61 120 -80 170 -8 19 -20 44 -27 55 -18 27 -16 37 5 33 10 -2 30 -31 49 -68z
m1095 -308 c31 -48 69 -109 83 -137 24 -44 101 -162 115 -175 5 -4 111 -170
143 -225 7 -10 28 -42 47 -70 19 -27 42 -63 50 -80 8 -16 21 -36 28 -43 7 -8
20 -28 29 -45 9 -18 27 -47 41 -65 14 -18 22 -35 18 -39 -3 -4 -10 -2 -15 3
-11 11 -155 229 -238 361 -68 106 -162 252 -231 356 -41 62 -57 88 -97 165
-10 17 -22 32 -27 32 -5 0 -6 5 -3 10 3 6 1 10 -4 10 -6 0 -11 7 -11 15 0 29
16 14 72 -73z"/>
</g>
</svg>
